<svg width="720" height="817" viewBox="0 0 720 817" fill="none" xmlns="http://www.w3.org/2000/svg">
<path d="M234.873 357.571C234.873 234.259 334.837 134.295 458.148 134.295C581.46 134.295 681.424 234.259 681.424 357.571C681.424 480.882 581.46 580.846 458.148 580.846C334.837 580.846 234.873 480.882 234.873 357.571Z" stroke="white"/>
<path d="M152.756 359.344C152.756 190.246 289.838 53.1645 458.937 53.1645C628.035 53.1648 765.116 190.246 765.116 359.344C765.116 528.443 628.035 665.525 458.937 665.525C289.838 665.525 152.756 528.443 152.756 359.344Z" stroke="white" stroke-width="0.7"/>
<path d="M74.5322 358.5C74.5322 146.44 246.44 -25.4677 458.5 -25.4678C670.56 -25.4678 842.468 146.44 842.468 358.5C842.468 570.56 670.56 742.468 458.5 742.468C246.441 742.468 74.5323 570.56 74.5322 358.5Z" stroke="white" stroke-width="0.5"/>
<circle opacity="0.25" cx="458.5" cy="358.5" r="458.25" transform="rotate(-90 458.5 358.5)" stroke="white" stroke-width="0.5"/>
</svg>
