<svg width="20" height="20" viewBox="0 0 20 20" fill="none" xmlns="http://www.w3.org/2000/svg">
<path d="M19.4141 14.1406C19.7266 14.2969 19.9609 14.6484 19.9609 15.0391C19.9609 15.0781 19.9609 15.1562 19.9609 15.2344L19.0234 19.2969C18.9062 19.7266 18.5547 20 18.125 20C8.08594 20 0 11.9141 0 1.875C0 1.44531 0.273438 1.09375 0.703125 0.976562L4.76562 0.0390625C4.84375 0.0390625 4.92188 0 4.96094 0C5.35156 0 5.70312 0.234375 5.85938 0.585938L7.73438 4.96094C7.77344 5.07812 7.8125 5.19531 7.8125 5.3125C7.8125 5.625 7.65625 5.89844 7.46094 6.05469L5.07812 8.00781C6.52344 11.0547 8.94531 13.4766 11.9922 14.9219L13.9453 12.5391C14.1016 12.3438 14.375 12.1875 14.6484 12.1875C14.8047 12.1875 14.9219 12.2266 15.0391 12.2656L19.4141 14.1406Z" fill="white"/>
</svg>
