<svg width="45" height="32" viewBox="0 0 45 32" fill="none" xmlns="http://www.w3.org/2000/svg">
<path d="M19.4211 22.8571C19.4211 28.0591 15.7895 32 10.2632 32C4.73684 32 0 27.5862 0 19.7044C0 9.93103 7.42105 1.57635 17.0526 0V5.83251C11.5263 6.93596 7.42105 10.8768 7.42105 15.4483C8.36842 14.8177 9.63158 14.3448 11.6842 14.3448C15.7895 14.3448 19.4211 17.3399 19.4211 22.8571ZM45 22.8571C45 28.0591 41.2105 32 35.6842 32C30.3158 32 25.4211 27.5862 25.4211 19.7044C25.4211 9.93103 32.8421 1.57635 42.6316 0V5.83251C37.1053 6.93596 33 10.8768 33 15.2906C33.9474 14.6601 35.3684 14.3448 37.2632 14.3448C41.3684 14.3448 45 17.3399 45 22.8571Z" fill="#EEFE08"/>
</svg>
