<svg width="48" height="48" viewBox="0 0 48 48" fill="none" xmlns="http://www.w3.org/2000/svg">
<rect x="0.5" y="0.5" width="47" height="47" rx="23.5" stroke="#FEFDFD"/>
<path d="M25.0281 14C26.1531 14.003 26.7241 14.009 27.2171 14.023L27.4111 14.03C27.6351 14.038 27.8561 14.048 28.1231 14.06C29.1871 14.11 29.9131 14.278 30.5501 14.525C31.2101 14.779 31.7661 15.123 32.3221 15.678C32.8308 16.1777 33.2243 16.7825 33.4751 17.45C33.7221 18.087 33.8901 18.813 33.9401 19.878C33.9521 20.144 33.9621 20.365 33.9701 20.59L33.9761 20.784C33.9911 21.276 33.9971 21.847 33.9991 22.972L34.0001 23.718V25.028C34.0025 25.7574 33.9948 26.4868 33.9771 27.216L33.9711 27.41C33.9631 27.635 33.9531 27.856 33.9411 28.122C33.8911 29.187 33.7211 29.912 33.4751 30.55C33.2243 31.2175 32.8308 31.8223 32.3221 32.322C31.8223 32.8307 31.2176 33.2242 30.5501 33.475C29.9131 33.722 29.1871 33.89 28.1231 33.94L27.4111 33.97L27.2171 33.976C26.7241 33.99 26.1531 33.997 25.0281 33.999L24.2821 34H22.9731C22.2433 34.0026 21.5136 33.9949 20.7841 33.977L20.5901 33.971C20.3527 33.962 20.1154 33.9517 19.8781 33.94C18.8141 33.89 18.0881 33.722 17.4501 33.475C16.7829 33.2241 16.1785 32.8306 15.6791 32.322C15.17 31.8224 14.7762 31.2176 14.5251 30.55C14.2781 29.913 14.1101 29.187 14.0601 28.122L14.0301 27.41L14.0251 27.216C14.0066 26.4868 13.9983 25.7574 14.0001 25.028V22.972C13.9973 22.2426 14.0046 21.5132 14.0221 20.784L14.0291 20.59C14.0371 20.365 14.0471 20.144 14.0591 19.878C14.1091 18.813 14.2771 18.088 14.5241 17.45C14.7758 16.7822 15.1703 16.1774 15.6801 15.678C16.1792 15.1695 16.7833 14.7761 17.4501 14.525C18.0881 14.278 18.8131 14.11 19.8781 14.06C20.1441 14.048 20.3661 14.038 20.5901 14.03L20.7841 14.024C21.5133 14.0062 22.2427 13.9986 22.9721 14.001L25.0281 14ZM24.0001 19C22.674 19 21.4022 19.5268 20.4645 20.4645C19.5269 21.4021 19.0001 22.6739 19.0001 24C19.0001 25.3261 19.5269 26.5979 20.4645 27.5355C21.4022 28.4732 22.674 29 24.0001 29C25.3262 29 26.5979 28.4732 27.5356 27.5355C28.4733 26.5979 29.0001 25.3261 29.0001 24C29.0001 22.6739 28.4733 21.4021 27.5356 20.4645C26.5979 19.5268 25.3262 19 24.0001 19ZM24.0001 21C24.394 20.9999 24.7842 21.0775 25.1482 21.2282C25.5122 21.3789 25.8429 21.5998 26.1215 21.8783C26.4002 22.1569 26.6212 22.4875 26.772 22.8515C26.9229 23.2154 27.0005 23.6055 27.0006 23.9995C27.0006 24.3935 26.9231 24.7836 26.7724 25.1476C26.6217 25.5116 26.4008 25.8423 26.1223 26.121C25.8437 26.3996 25.513 26.6206 25.1491 26.7714C24.7851 26.9223 24.395 26.9999 24.0011 27C23.2054 27 22.4424 26.6839 21.8798 26.1213C21.3172 25.5587 21.0011 24.7956 21.0011 24C21.0011 23.2044 21.3172 22.4413 21.8798 21.8787C22.4424 21.3161 23.2054 21 24.0011 21M29.2511 17.5C28.9196 17.5 28.6016 17.6317 28.3672 17.8661C28.1328 18.1005 28.0011 18.4185 28.0011 18.75C28.0011 19.0815 28.1328 19.3995 28.3672 19.6339C28.6016 19.8683 28.9196 20 29.2511 20C29.5826 20 29.9005 19.8683 30.135 19.6339C30.3694 19.3995 30.5011 19.0815 30.5011 18.75C30.5011 18.4185 30.3694 18.1005 30.135 17.8661C29.9005 17.6317 29.5826 17.5 29.2511 17.5Z" fill="#FEFDFD"/>
</svg>
