<svg width="48" height="48" viewBox="0 0 48 48" fill="none" xmlns="http://www.w3.org/2000/svg">
<rect x="0.5" y="0.5" width="47" height="47" rx="23.5" stroke="#FEFDFD"/>
<path fill-rule="evenodd" clip-rule="evenodd" d="M24 16C24.855 16 25.732 16.022 26.582 16.058L27.586 16.106L28.547 16.163L29.447 16.224L30.269 16.288C31.1612 16.3559 32.0008 16.7364 32.64 17.3626C33.2791 17.9888 33.6768 18.8204 33.763 19.711L33.803 20.136L33.878 21.046C33.948 21.989 34 23.017 34 24C34 24.983 33.948 26.011 33.878 26.954L33.803 27.864L33.763 28.289C33.6768 29.1798 33.2789 30.0115 32.6396 30.6377C32.0002 31.2639 31.1604 31.6443 30.268 31.712L29.448 31.775L28.548 31.837L27.586 31.894L26.582 31.942C25.7218 31.9793 24.861 31.9986 24 32C23.139 31.9986 22.2782 31.9793 21.418 31.942L20.414 31.894L19.453 31.837L18.553 31.775L17.731 31.712C16.8388 31.6441 15.9992 31.2636 15.36 30.6374C14.7209 30.0112 14.3232 29.1796 14.237 28.289L14.197 27.864L14.122 26.954C14.0458 25.9711 14.0051 24.9858 14 24C14 23.017 14.052 21.989 14.122 21.046L14.197 20.136L14.237 19.711C14.3232 18.8206 14.7207 17.9891 15.3597 17.3629C15.9986 16.7368 16.838 16.3561 17.73 16.288L18.551 16.224L19.451 16.163L20.413 16.106L21.417 16.058C22.2775 16.0207 23.1387 16.0014 24 16ZM22 21.575V26.425C22 26.887 22.5 27.175 22.9 26.945L27.1 24.52C27.1914 24.4674 27.2673 24.3916 27.3201 24.3003C27.3729 24.209 27.4007 24.1055 27.4007 24C27.4007 23.8945 27.3729 23.791 27.3201 23.6997C27.2673 23.6084 27.1914 23.5326 27.1 23.48L22.9 21.056C22.8088 21.0033 22.7053 20.9756 22.5999 20.9756C22.4945 20.9756 22.3911 21.0034 22.2998 21.0561C22.2086 21.1088 22.1329 21.1846 22.0802 21.2759C22.0276 21.3671 21.9999 21.4706 22 21.576V21.575Z" fill="#FEFDFD"/>
</svg>
